<svg xmlns="http://www.w3.org/2000/svg" xmlns:xlink="http://www.w3.org/1999/xlink" preserveAspectRatio="xMidYMid" width="567.469" height="662" viewBox="-24 0 567.469 662">
  <defs>
    <style>
      .cls-1 {
        fill: #fff;
        fill-rule: evenodd;
      }
    </style>
  </defs>
  <path d="M566.682,243.435 C564.909,249.590 562.276,259.314 560.876,266.080 C560.729,266.695 560.533,266.856 559.990,266.518 C558.959,265.826 557.988,264.134 558.437,260.548 C559.281,254.140 562.274,241.955 565.009,234.939 C565.298,234.175 565.903,234.035 566.413,234.730 C567.486,236.109 568.000,238.833 566.682,243.435 ZM560.199,272.448 C559.727,273.426 558.052,273.466 556.987,272.377 C555.775,271.147 555.668,269.430 556.335,268.289 C556.957,267.217 558.697,267.453 559.770,268.833 C560.669,269.959 560.626,271.537 560.199,272.448 ZM547.231,269.229 C547.084,269.843 546.889,270.005 546.346,269.666 C545.314,268.974 544.343,267.284 544.792,263.696 C545.637,257.290 548.630,245.104 551.365,238.088 C551.653,237.324 552.259,237.185 552.768,237.878 C553.841,239.258 554.355,241.983 553.036,246.584 C551.264,252.739 548.631,262.462 547.231,269.229 ZM546.554,275.597 C546.082,276.576 544.408,276.615 543.343,275.525 C542.130,274.295 542.023,272.578 542.690,271.438 C543.312,270.365 545.052,270.603 546.126,271.981 C547.024,273.108 546.981,274.686 546.554,275.597 ZM533.912,278.805 C529.708,279.717 527.901,276.419 528.401,271.543 C528.596,269.872 528.964,267.698 529.444,265.497 C528.209,266.942 526.589,267.722 524.634,268.057 C524.612,272.996 522.450,279.476 518.620,281.752 C516.789,282.872 513.964,283.465 511.139,281.042 C510.230,280.272 509.582,279.294 509.119,278.199 C509.114,278.221 509.115,278.237 509.109,278.259 C508.291,281.756 505.565,285.289 502.311,286.039 C497.679,287.108 495.745,284.013 496.291,278.835 C496.876,273.071 500.350,266.232 499.352,265.940 C498.479,265.675 493.335,270.811 491.345,276.785 C490.112,280.494 488.962,284.823 488.417,288.489 C488.310,289.038 487.949,289.237 487.529,288.928 C486.800,288.410 486.190,287.602 485.963,286.107 C484.349,288.786 481.793,290.644 478.894,291.444 C475.721,292.291 472.443,292.176 469.778,289.192 C469.583,288.969 469.410,288.721 469.242,288.470 C467.783,292.054 464.814,294.536 461.343,295.494 C458.170,296.342 454.892,296.227 452.228,293.243 C452.031,293.018 451.857,292.768 451.687,292.514 C450.692,295.613 448.168,298.808 445.384,299.292 C442.368,299.813 440.417,298.406 439.819,295.817 C438.576,298.482 436.566,301.095 433.919,301.706 C428.792,302.889 426.127,296.131 429.164,288.405 C432.128,280.873 435.911,277.386 438.668,276.750 C441.038,276.203 442.561,277.768 442.947,279.943 C443.358,278.454 443.753,277.143 444.156,276.122 C444.486,275.292 444.902,275.079 445.402,275.486 C446.459,276.287 447.447,278.555 446.761,281.616 C446.121,284.377 444.318,289.147 443.670,292.373 C443.005,295.778 443.497,298.160 445.345,297.617 C447.371,297.045 449.338,293.337 450.472,289.485 C450.197,287.969 450.375,286.457 451.176,285.417 C451.710,284.711 452.201,284.831 452.460,285.701 C452.617,286.129 452.720,286.570 452.876,286.998 C454.423,283.389 456.077,279.234 457.027,276.053 C456.806,273.842 457.116,272.667 458.032,271.352 C458.990,269.971 460.208,269.458 460.818,269.838 C461.497,270.263 461.361,270.932 460.938,272.365 C460.794,272.747 460.705,273.117 460.573,273.553 C461.358,278.712 463.399,282.770 464.112,286.611 C464.497,288.786 464.646,291.190 462.967,292.971 C465.679,291.179 467.201,288.349 468.059,285.597 C467.740,284.027 467.897,282.444 468.726,281.366 C469.260,280.662 469.751,280.781 470.011,281.650 C470.168,282.079 470.269,282.519 470.426,282.948 C471.974,279.340 473.627,275.184 474.577,272.003 C474.357,269.791 474.667,268.616 475.582,267.301 C476.541,265.920 477.758,265.408 478.369,265.788 C479.047,266.214 478.913,266.882 478.488,268.316 C478.344,268.697 478.255,269.066 478.123,269.503 C478.909,274.662 480.949,278.721 481.661,282.561 C482.047,284.736 482.197,287.140 480.517,288.921 C483.894,286.690 485.446,282.849 486.136,279.555 C486.221,279.136 486.483,279.017 486.746,279.064 C488.800,270.387 494.123,254.055 496.785,248.535 C497.129,247.760 497.692,247.686 498.121,248.284 C499.207,249.718 499.679,252.512 498.385,256.466 C497.571,258.978 495.680,264.116 494.161,268.356 C495.912,265.630 498.360,263.149 499.886,262.971 C501.813,262.759 504.158,265.121 503.373,268.261 C502.720,270.966 501.004,275.601 500.397,278.761 C499.757,282.274 500.631,284.801 502.647,284.220 C504.880,283.587 506.997,278.920 507.891,274.998 C507.947,274.710 508.128,274.547 508.333,274.506 C508.242,272.576 508.528,270.496 509.157,268.437 C510.497,264.179 513.024,260.288 516.269,259.247 C517.940,258.689 519.022,258.846 520.494,260.189 C522.114,261.673 523.845,261.622 524.486,265.653 C524.549,265.929 524.582,266.328 524.592,266.617 C528.010,265.827 530.435,261.495 532.310,256.534 C532.628,255.648 533.056,255.490 533.613,255.885 C534.643,256.575 535.576,258.856 534.944,261.905 C534.402,264.585 532.909,268.934 532.375,271.902 C531.735,275.417 532.354,277.597 534.148,277.066 C536.549,276.396 538.796,272.046 539.560,267.806 C539.665,267.259 540.106,267.157 540.497,267.590 C541.032,268.395 541.244,269.566 540.858,271.164 C539.967,274.853 537.012,278.147 533.912,278.805 ZM440.267,279.400 C438.463,279.643 435.266,284.153 433.367,289.760 C431.539,295.173 431.943,300.188 434.106,299.747 C436.379,299.281 438.432,295.091 440.123,289.592 C442.196,282.728 441.904,279.197 440.267,279.400 ZM457.732,279.607 C456.807,282.898 455.467,286.400 454.059,289.860 C455.625,292.866 457.746,294.756 459.438,293.786 C461.797,292.428 458.970,283.966 457.732,279.607 ZM475.283,275.556 C474.357,278.847 473.017,282.349 471.610,285.810 C473.176,288.816 475.297,290.706 476.989,289.736 C479.346,288.378 476.521,279.915 475.283,275.556 ZM520.342,262.546 C519.768,260.820 518.632,261.431 518.725,263.094 C518.785,264.356 519.637,265.787 520.901,266.481 C520.986,264.836 520.681,263.513 520.342,262.546 ZM516.041,263.539 C514.843,265.151 513.623,267.406 512.949,269.767 C511.588,274.436 511.945,279.753 513.659,280.633 C515.440,281.557 518.401,278.785 519.902,273.213 C520.431,271.234 520.736,269.538 520.914,268.046 C518.687,267.456 516.592,265.676 516.041,263.539 ZM534.082,254.151 C532.911,252.854 532.709,251.216 533.374,250.076 C534.039,248.935 535.846,249.215 536.865,250.606 C537.883,251.996 537.735,253.367 537.307,254.277 C536.836,255.256 535.254,255.449 534.082,254.151 ZM451.619,73.199 C476.962,80.173 494.779,88.502 505.073,98.194 C515.364,107.886 520.511,120.383 520.511,135.687 C520.511,153.711 514.386,167.484 502.139,177.005 C489.893,186.529 471.776,191.288 447.791,191.288 C437.075,191.288 425.931,189.630 414.366,186.314 C402.796,182.998 393.101,178.706 385.278,173.434 L395.485,139.512 C412.835,151.416 430.863,157.366 449.578,157.366 C458.420,157.366 465.098,155.541 469.608,151.882 C474.112,148.228 476.368,143.083 476.368,136.452 C476.368,131.012 474.539,126.592 470.883,123.189 C467.223,119.789 460.804,116.729 451.619,114.007 C428.312,107.209 411.599,98.919 401.481,89.140 C391.359,79.364 386.299,67.249 386.299,52.795 C386.299,36.643 392.335,23.807 404.414,14.283 C416.492,4.762 433.503,-0.000 455.445,-0.000 C478.921,-0.000 499.245,4.080 516.429,12.242 L508.263,45.909 C492.101,37.918 475.093,33.921 457.232,33.921 C448.385,33.921 441.668,35.623 437.075,39.022 C432.482,42.426 430.186,47.016 430.186,52.795 C430.186,62.320 437.330,69.118 451.619,73.199 ZM322.155,61.977 L321.645,61.977 L293.578,188.737 L249.182,188.737 L221.114,61.977 L220.604,61.977 L209.888,188.737 L168.042,188.737 L190.751,2.550 L242.547,2.550 L271.635,140.277 L272.145,140.277 L301.233,2.550 L353.029,2.550 L375.738,188.737 L332.873,188.737 L322.155,61.977 ZM60.472,140.022 C71.189,150.906 85.051,156.345 102.062,156.345 C116.862,156.345 131.489,151.671 145.949,142.318 L158.197,173.944 C141.185,185.509 121.111,191.288 97.980,191.288 C68.382,191.288 44.652,182.703 26.791,165.528 C8.930,148.356 0.000,125.062 0.000,95.643 C0.000,65.891 8.676,42.509 26.026,25.505 C43.376,8.504 67.361,-0.000 97.980,-0.000 C121.111,-0.000 141.185,5.782 158.197,17.343 L145.949,48.969 C131.489,39.620 116.862,34.941 102.062,34.941 C84.202,34.941 70.124,40.297 59.834,51.010 C49.540,61.722 44.397,76.602 44.397,95.643 C44.397,114.350 49.755,129.143 60.472,140.022 ZM13.345,465.485 L2.222,443.844 C19.171,439.475 34.797,433.786 49.098,426.768 L48.900,426.768 L17.119,426.768 L17.119,351.321 L71.146,351.321 C71.276,350.794 71.509,349.931 71.841,348.740 C72.170,347.549 72.468,346.690 72.735,346.159 L6.393,346.159 L6.393,321.540 L179.596,321.540 L179.596,346.159 L104.913,346.159 C104.646,346.690 104.347,347.549 104.019,348.740 C103.687,349.931 103.454,350.794 103.323,351.321 L168.870,351.321 L168.870,426.768 L85.249,426.768 L79.290,432.129 L158.741,432.129 L158.741,450.396 C151.590,456.749 142.385,462.705 131.131,468.264 C146.094,470.647 162.778,472.235 181.185,473.029 L173.836,496.260 C144.570,494.671 117.823,490.105 93.591,482.559 C70.152,489.177 43.006,493.743 12.154,496.260 L4.805,473.029 C25.592,471.838 43.205,470.185 57.639,468.066 C52.078,465.156 47.177,462.178 42.941,459.132 L51.482,450.396 L51.085,450.396 C38.106,457.016 25.527,462.045 13.345,465.485 ZM137.090,368.396 L48.900,368.396 L48.900,373.558 L137.090,373.558 L137.090,368.396 ZM137.090,387.456 L48.900,387.456 L48.900,392.618 L137.090,392.618 L137.090,387.456 ZM95.379,460.521 C106.766,457.345 115.967,453.969 122.988,450.396 L68.167,450.396 C75.581,453.969 84.652,457.345 95.379,460.521 ZM137.090,411.679 L137.090,406.517 L48.900,406.517 L48.900,411.679 L137.090,411.679 ZM184.481,533.756 C189.866,528.253 197.115,525.501 206.225,525.501 C215.494,525.501 222.801,528.312 228.148,533.934 C233.495,539.557 236.169,547.316 236.169,557.214 C236.169,573.842 232.346,587.146 224.703,597.123 C217.057,607.099 206.344,612.920 192.560,614.583 L191.610,609.476 C212.285,606.705 224.801,594.352 229.158,572.417 L228.921,572.417 C223.455,580.336 215.571,584.294 205.275,584.294 C196.559,584.294 189.570,581.702 184.302,576.516 C179.033,571.329 176.400,564.420 176.400,555.789 C176.400,546.604 179.092,539.260 184.481,533.756 ZM188.877,573.012 C193.233,577.287 199.016,579.425 206.225,579.425 C212.799,579.425 218.423,577.129 223.099,572.536 C227.772,567.945 230.109,562.362 230.109,555.789 C230.109,547.949 227.989,541.794 223.752,537.319 C219.513,532.846 213.670,530.608 206.225,530.608 C198.778,530.608 192.936,532.846 188.699,537.319 C184.460,541.794 182.342,547.949 182.342,555.789 C182.342,562.995 184.519,568.736 188.877,573.012 ZM229.627,659.798 C232.497,659.798 234.684,659.131 236.188,657.799 C237.692,656.466 238.443,654.538 238.443,652.010 C238.443,649.721 237.768,647.868 236.419,646.450 C235.069,645.033 232.805,643.829 229.627,642.838 C222.519,640.720 218.966,637.202 218.966,632.283 C218.966,629.654 219.914,627.544 221.810,625.955 C223.707,624.367 226.363,623.573 229.781,623.573 C233.608,623.573 237.111,624.392 240.289,626.032 L239.571,628.082 C236.700,626.544 233.437,625.777 229.781,625.777 C227.149,625.777 225.107,626.349 223.656,627.492 C222.203,628.637 221.477,630.233 221.477,632.283 C221.477,636.041 224.262,638.773 229.832,640.481 C233.796,641.677 236.649,643.180 238.392,644.990 C240.135,646.800 241.006,649.140 241.006,652.010 C241.006,655.220 240.023,657.688 238.059,659.413 C236.094,661.138 233.283,662.000 229.627,662.000 C225.458,662.000 221.784,660.856 218.607,658.568 L219.529,656.518 C222.468,658.705 225.834,659.798 229.627,659.798 ZM260.104,624.085 L274.097,661.488 L271.381,661.488 L267.075,649.653 L250.006,649.653 L245.701,661.488 L243.035,661.488 L257.029,624.085 L260.104,624.085 ZM266.255,647.500 L258.567,626.339 L258.464,626.339 L250.775,647.500 L266.255,647.500 ZM270.929,624.085 L297.890,624.085 L297.890,626.339 L285.692,626.339 L285.692,661.488 L283.129,661.488 L283.129,626.339 L270.929,626.339 L270.929,624.085 ZM286.512,603.537 C293.086,607.498 299.859,609.476 306.830,609.476 C314.831,609.476 320.912,607.456 325.070,603.418 C329.230,599.379 331.309,593.401 331.309,585.483 C331.309,578.673 329.426,573.486 325.664,569.923 C321.902,566.359 316.415,564.578 309.207,564.578 C302.711,564.578 297.046,566.479 292.215,570.280 L286.749,570.280 L289.602,526.688 L333.685,526.688 L333.685,531.796 L295.068,531.796 L292.809,564.341 L293.047,564.341 C298.038,561.174 303.662,559.590 309.920,559.590 C318.633,559.590 325.367,561.846 330.121,566.359 C334.873,570.874 337.249,577.249 337.249,585.483 C337.249,594.906 334.655,602.111 329.467,607.099 C324.278,612.089 316.733,614.583 306.830,614.583 C298.830,614.583 291.423,612.525 284.611,608.407 L286.512,603.537 ZM279.728,526.688 L238.853,618.146 L232.912,618.146 L273.787,526.688 L279.728,526.688 ZM252.090,305.790 L251.002,308.238 C235.671,301.437 223.040,291.985 213.107,279.880 C203.174,267.775 196.892,254.288 194.262,239.416 C191.630,254.288 185.350,267.775 175.417,279.880 C165.484,291.985 152.851,301.437 137.522,308.238 L136.433,305.790 C153.850,297.992 167.614,286.795 177.730,272.195 C187.843,257.597 192.902,241.640 192.902,224.319 L138.203,224.319 L138.203,221.735 L192.902,221.735 L192.902,195.077 L195.622,195.077 L195.622,221.735 L250.321,221.735 L250.321,224.319 L195.622,224.319 C195.622,241.640 200.678,257.597 210.794,272.195 C220.908,286.795 234.674,297.992 252.090,305.790 ZM318.655,442.653 L300.183,442.653 L300.183,460.720 C300.183,466.413 300.084,470.914 299.886,474.221 C299.687,477.531 299.122,480.640 298.198,483.553 C297.270,486.463 296.211,488.548 295.020,489.807 C293.828,491.063 291.807,492.155 288.961,493.083 C286.112,494.007 283.067,494.572 279.825,494.771 C276.578,494.969 272.177,495.068 266.616,495.068 C260.524,495.068 251.520,494.736 239.602,494.076 L238.013,469.456 C248.606,470.120 256.219,470.448 260.856,470.448 C264.562,470.448 266.746,470.151 267.410,469.555 C268.072,468.959 268.404,466.943 268.404,463.499 L268.404,442.653 L240.397,442.653 L252.116,452.183 C239.534,467.406 225.301,480.904 209.411,492.686 L190.939,473.228 C202.723,464.626 214.178,454.435 225.301,442.653 L206.034,442.653 L206.034,427.364 C202.326,429.483 199.479,431.072 197.494,432.129 L186.172,406.517 C191.997,403.474 198.487,399.834 205.637,395.596 C201.000,390.038 196.168,384.414 191.137,378.720 L200.274,371.176 L187.959,351.718 C204.774,339.805 218.151,327.232 228.082,313.994 L248.342,326.106 L267.807,326.106 C266.879,323.990 266.020,321.672 265.225,319.157 L293.232,315.781 C296.937,325.842 301.043,334.842 305.547,342.783 L305.547,324.518 L363.745,324.518 L363.745,347.549 C356.594,360.389 348.450,372.039 339.314,382.493 C348.978,390.304 360.964,398.047 375.265,405.723 L363.943,432.129 C360.766,430.410 357.915,428.754 355.403,427.165 L355.403,442.653 L337.129,442.653 C349.971,454.168 361.094,464.825 370.498,474.619 L351.033,493.679 C335.405,477.794 321.039,464.294 307.931,453.175 L318.655,442.653 ZM225.897,369.786 C222.849,366.212 220.466,363.501 218.746,361.646 C215.568,364.294 212.986,366.345 211.000,367.801 C212.456,369.389 214.641,371.939 217.555,375.445 C220.466,378.952 222.651,381.500 224.110,383.088 C227.948,380.179 230.531,378.059 231.856,376.735 C230.928,375.677 228.942,373.360 225.897,369.786 ZM235.630,347.350 L247.547,361.050 C250.459,357.742 253.835,353.176 257.677,347.350 L235.630,347.350 ZM283.698,356.880 C277.208,366.411 269.992,375.346 262.047,383.684 L303.957,383.684 C296.410,375.081 289.656,366.147 283.698,356.880 ZM308.327,347.549 C312.167,353.902 316.404,359.728 321.039,365.021 C326.467,358.667 330.903,352.845 334.348,347.549 L308.327,347.549 ZM341.698,418.033 C333.485,412.077 325.872,405.792 318.854,399.171 L318.854,408.304 L244.171,408.304 L244.171,400.561 C236.093,407.444 228.479,413.267 221.328,418.033 L341.698,418.033 ZM276.990,310.958 L276.990,199.021 L313.049,199.021 L313.049,201.741 C308.511,213.710 302.796,225.227 295.904,236.288 C300.891,242.636 304.316,248.009 306.176,252.406 C308.035,256.805 308.967,261.905 308.967,267.707 C308.967,273.058 307.695,276.956 305.157,279.404 C302.616,281.852 298.578,283.076 293.047,283.076 L286.379,283.076 L286.379,280.356 L293.047,280.356 C297.853,280.356 301.279,279.404 303.319,277.499 C305.360,275.596 306.381,272.331 306.381,267.707 C306.381,262.086 305.428,257.076 303.524,252.678 C301.619,248.280 297.989,242.863 292.638,236.424 C299.714,225.363 305.564,213.802 310.191,201.741 L279.712,201.741 L279.712,310.958 L276.990,310.958 ZM391.150,309.598 C376.727,303.159 364.754,294.637 355.229,284.028 C344.071,295.181 330.826,303.703 315.498,309.598 L314.545,307.150 C329.601,301.437 342.575,293.051 353.460,281.988 C343.752,270.746 336.043,256.554 330.328,239.416 L332.914,238.601 C338.629,255.466 346.065,269.294 355.229,280.084 C367.111,267.481 376.137,252.021 382.307,233.704 L321.621,233.704 L321.621,240.368 C321.621,267.481 316.450,290.376 306.110,309.054 L303.796,307.694 C313.954,289.196 319.035,266.754 319.035,240.368 L319.035,200.382 L388.293,200.382 L388.293,203.102 L321.621,203.102 L321.621,230.984 L385.027,230.984 L385.027,233.704 C378.768,252.837 369.425,268.978 356.997,282.124 C366.250,292.461 377.997,300.804 392.239,307.150 L391.150,309.598 ZM431.282,266.322 C432.058,268.176 431.889,270.708 429.929,275.051 C427.127,281.271 421.309,293.296 417.005,305.087 C416.717,305.851 416.283,306.239 415.414,305.745 C413.145,304.469 412.025,302.636 411.948,298.533 C411.889,294.250 412.362,287.755 412.986,282.156 C409.526,289.803 405.204,300.263 402.236,308.786 C401.990,309.481 401.502,309.883 400.645,309.442 C398.321,308.178 397.397,306.187 397.400,302.180 C397.451,293.345 398.989,279.637 400.495,273.833 C400.744,272.905 401.283,272.722 401.822,273.295 C403.128,274.676 403.696,276.636 403.078,281.248 C402.404,286.629 401.357,294.417 400.794,302.792 C403.986,293.229 409.804,279.696 413.893,271.494 C414.176,270.966 414.690,270.673 415.284,271.233 C416.755,272.577 417.349,273.891 416.938,278.398 C416.371,283.987 415.607,291.244 415.358,299.719 C418.827,289.341 426.252,272.706 429.907,266.407 C430.418,265.593 430.994,265.575 431.282,266.322 ZM461.707,362.836 C450.715,362.836 440.817,368.728 432.013,380.508 C423.204,392.289 417.677,408.238 415.427,428.357 L385.037,429.151 C385.037,392.752 386.030,357.014 388.017,321.937 L419.201,321.937 C418.010,339.409 417.280,352.646 417.016,361.646 L417.414,361.843 C429.991,342.256 445.818,332.459 464.886,332.459 C481.834,332.459 495.009,338.186 504.413,349.634 C513.813,361.084 518.516,377.995 518.516,400.363 C518.516,458.470 482.693,488.119 411.057,489.311 L408.476,460.521 C435.489,459.994 455.119,454.931 467.368,445.333 C479.615,435.737 485.741,420.746 485.741,400.363 C485.741,375.346 477.728,362.836 461.707,362.836 Z" class="cls-1"/>
</svg>
