<svg xmlns="http://www.w3.org/2000/svg" xmlns:xlink="http://www.w3.org/1999/xlink" preserveAspectRatio="xMidYMid" width="318" height="34" viewBox="0 0 318 34">
  <defs>
    <style>
      .cls-1 {
        fill: #fff;
        fill-rule: evenodd;
      }
    </style>
  </defs>
  <path d="M315.475,6.416 L304.842,6.416 C304.193,6.416 303.977,6.989 303.941,7.495 L303.112,15.734 C304.229,14.727 305.923,13.215 309.528,13.215 C314.574,13.215 317.999,17.209 317.999,22.498 C317.999,26.780 315.655,32.681 308.627,32.681 C302.680,32.681 299.399,28.327 299.399,26.745 C299.399,26.025 299.940,25.269 300.660,25.269 C301.418,25.269 301.778,25.808 302.463,26.887 C303.725,28.831 305.527,29.910 308.591,29.910 C314.034,29.910 315.223,25.808 315.223,22.498 C315.223,16.706 311.078,15.949 309.240,15.949 C305.599,15.949 303.941,18.144 302.715,19.799 C302.535,20.016 302.211,20.447 301.454,20.447 C300.337,20.447 300.084,19.403 300.120,19.116 L301.382,6.523 C301.598,4.472 302.283,3.679 304.265,3.679 L315.475,3.679 C316.232,3.679 316.738,4.255 316.738,5.048 C316.738,5.731 316.304,6.416 315.475,6.416 ZM294.274,32.681 C293.590,32.681 292.941,32.105 292.941,31.350 L292.941,7.674 L289.769,11.452 C289.408,11.884 289.083,11.956 288.831,11.956 C287.930,11.956 287.353,11.236 287.353,10.588 C287.353,10.157 287.569,9.833 287.786,9.581 L292.725,3.789 C293.229,3.176 293.734,3.032 294.238,3.032 C295.067,3.032 295.716,3.428 295.716,4.292 L295.716,31.350 C295.716,31.961 295.139,32.681 294.274,32.681 ZM275.349,32.681 C267.779,32.681 265.833,25.484 265.833,17.857 C265.833,10.877 267.455,3.032 275.349,3.032 C282.954,3.032 284.829,10.336 284.829,17.857 C284.829,25.053 283.099,32.681 275.349,32.681 ZM275.349,5.803 C270.122,5.803 268.645,11.164 268.645,17.857 C268.645,24.838 270.266,29.910 275.349,29.910 C280.359,29.910 282.089,24.945 282.053,17.857 C282.053,10.912 280.432,5.803 275.349,5.803 ZM249.118,29.299 L262.635,29.299 C263.427,29.299 263.896,30.017 263.896,30.665 C263.896,31.313 263.427,32.033 262.635,32.033 L248.360,32.033 C246.162,32.033 245.297,30.702 245.297,28.759 C245.297,22.966 251.821,18.864 254.236,17.352 C257.588,15.266 260.364,13.539 260.364,10.336 C260.364,9.364 260.039,5.803 254.885,5.803 C249.946,5.803 248.576,9.040 248.252,10.301 C247.783,12.063 247.603,12.746 246.522,12.746 C245.692,12.746 245.297,12.173 245.297,11.236 C245.297,8.718 247.712,3.032 254.849,3.032 C260.724,3.032 263.211,6.810 263.211,10.336 C263.211,14.907 259.643,17.137 256.470,19.151 C252.866,21.419 248.252,24.838 248.252,28.362 C248.252,29.120 248.648,29.299 249.118,29.299 ZM225.739,32.634 C224.983,32.634 224.334,32.059 224.334,31.266 C224.334,30.150 224.838,30.080 226.604,29.791 C230.353,29.215 233.777,27.596 236.157,25.220 C238.680,22.703 239.545,19.464 239.545,12.699 C239.545,11.404 239.472,7.411 239.076,4.101 C239.040,3.777 239.040,3.598 239.040,3.525 C239.040,2.589 239.761,2.122 240.410,2.122 C240.987,2.122 241.347,2.446 241.491,2.661 C242.140,3.416 242.249,9.749 242.249,11.009 C242.249,20.580 241.491,26.013 233.777,30.187 C229.776,32.345 226.207,32.634 225.739,32.634 ZM223.973,22.055 C220.981,22.055 219.863,19.069 219.863,14.247 C219.863,11.261 220.440,5.971 220.837,3.849 C220.945,3.274 221.161,2.733 221.847,2.553 C222.459,2.409 223.468,2.733 223.468,3.849 C223.468,5.001 223.035,6.763 222.892,7.914 C222.495,10.793 222.387,12.303 222.387,13.995 C222.387,15.722 222.387,19.393 224.550,19.393 C225.090,19.393 225.848,18.960 226.316,18.601 C227.037,17.988 227.253,17.809 227.649,17.809 C228.371,17.809 228.911,18.384 228.911,19.069 C228.911,20.111 226.496,22.055 223.973,22.055 ZM215.864,19.321 C214.495,19.321 206.457,16.370 202.095,8.418 C200.833,6.152 199.895,3.488 199.895,3.020 C199.895,2.374 200.401,1.905 201.014,1.905 C201.771,1.905 202.023,2.446 202.239,3.092 C202.924,5.108 204.509,8.203 206.240,10.362 C208.871,8.707 211.395,6.404 211.395,5.611 C211.395,4.964 210.818,4.964 210.349,4.964 L205.628,4.964 C204.799,4.964 203.789,4.964 203.789,3.884 C203.789,2.805 204.799,2.805 205.628,2.805 L211.755,2.805 C213.197,2.805 214.350,3.020 214.350,4.784 C214.350,7.231 210.385,10.362 207.754,12.052 C209.340,13.671 211.720,15.291 215.685,16.766 C216.729,17.161 217.018,17.449 217.018,18.025 C217.018,18.132 217.018,19.321 215.864,19.321 ZM191.101,16.585 C188.361,18.312 184.613,19.897 183.892,19.897 C183.170,19.897 182.666,19.249 182.666,18.636 C182.666,17.918 183.495,17.557 183.712,17.449 C184.973,16.909 188.433,15.363 189.191,14.930 C188.469,14.140 187.460,12.988 186.991,12.555 C186.235,11.837 185.982,11.585 185.982,11.117 C185.982,10.434 186.559,9.965 187.136,9.965 C187.497,9.965 187.784,9.965 191.173,13.636 C191.317,13.527 192.254,12.844 193.480,11.765 C193.192,11.476 192.327,10.686 191.605,10.110 C189.659,8.597 189.443,8.418 189.443,7.949 C189.443,7.194 190.056,6.835 190.524,6.835 C191.353,6.835 193.480,8.670 195.030,10.145 C195.679,9.355 197.445,6.942 197.445,6.080 C197.445,5.467 196.941,5.467 196.435,5.467 L190.200,5.467 C188.326,7.807 185.009,10.252 184.216,10.252 C183.603,10.252 183.063,9.714 183.063,9.066 C183.063,8.490 183.063,8.490 184.793,7.266 C186.307,6.187 188.469,4.677 190.416,0.826 C190.633,0.358 190.812,-0.001 191.498,-0.001 C192.290,-0.001 192.687,0.538 192.687,1.041 C192.687,1.437 192.218,2.446 191.821,3.092 L197.445,3.092 C198.382,3.092 200.149,3.092 200.149,5.252 C200.149,7.303 197.806,12.413 191.101,16.585 ZM179.015,31.518 C179.771,31.553 180.565,31.770 180.565,32.670 C180.565,33.786 179.375,33.786 179.015,33.786 C174.292,33.786 169.678,32.705 165.317,30.907 C158.541,33.352 150.575,33.856 150.286,33.856 C149.710,33.856 148.808,33.821 148.808,32.705 C148.808,31.770 149.493,31.625 150.971,31.483 C152.989,31.266 158.361,30.691 162.325,29.467 C161.676,29.108 159.154,27.705 156.774,24.897 C151.656,29.071 148.051,29.791 147.799,29.791 C147.186,29.791 146.681,29.360 146.681,28.675 C146.681,27.957 146.970,27.812 148.484,27.236 C150.575,26.444 154.251,24.754 157.892,20.687 L154.503,20.687 C151.548,20.687 151.188,18.708 151.188,17.809 L151.188,9.138 C151.188,8.094 151.584,6.259 154.503,6.259 L161.604,6.259 L162.253,4.171 L148.808,4.171 C148.015,4.171 147.078,4.171 147.078,3.129 C147.078,2.085 148.015,2.085 148.808,2.085 L178.330,2.085 C179.123,2.085 180.060,2.085 180.060,3.129 C180.060,4.171 179.123,4.171 178.330,4.171 L164.812,4.171 L164.163,6.259 L172.707,6.259 C175.627,6.259 176.022,8.238 176.022,9.138 L176.022,17.809 C176.022,18.853 175.590,20.687 172.707,20.687 L160.848,20.687 C160.235,21.514 159.694,22.090 159.045,22.775 L172.418,22.775 C174.149,22.775 174.762,23.675 174.762,24.537 C174.762,26.516 171.229,28.351 168.417,29.611 C172.058,30.763 175.230,31.266 179.015,31.518 ZM173.608,9.534 C173.608,9.245 173.320,8.346 172.166,8.346 L154.972,8.346 C153.782,8.346 153.530,9.245 153.530,9.534 L153.530,10.362 L173.608,10.362 L173.608,9.534 ZM173.608,12.303 L153.530,12.303 L153.530,14.534 L173.608,14.534 L173.608,12.303 ZM172.166,18.529 C173.320,18.529 173.608,17.629 173.608,17.342 L173.608,16.478 L153.530,16.478 L153.530,17.342 C153.530,17.594 153.782,18.529 154.972,18.529 L172.166,18.529 ZM171.157,25.150 C171.157,24.897 170.904,24.861 170.652,24.861 L159.803,24.861 C161.533,26.553 163.371,27.560 165.282,28.423 C168.813,26.948 171.157,25.509 171.157,25.150 ZM144.476,32.705 C144.476,33.425 143.863,33.821 143.323,33.821 C142.169,33.821 138.852,31.266 135.969,27.847 C132.220,31.553 128.183,33.641 127.282,33.641 C126.632,33.641 126.128,33.066 126.128,32.453 C126.128,31.698 126.741,31.374 127.174,31.159 C128.687,30.402 131.427,28.999 134.455,25.905 C130.923,20.724 130.058,16.191 129.805,13.671 L128.507,13.671 C128.291,23.351 127.642,27.488 124.254,32.634 C123.857,33.245 123.461,33.714 122.848,33.714 C121.875,33.714 121.695,32.956 121.695,32.490 C121.695,32.345 121.766,32.094 122.019,31.698 C125.804,25.796 126.056,22.200 126.056,11.513 L126.056,5.143 C126.056,3.992 126.309,2.192 129.048,2.192 L142.313,2.192 C143.214,2.192 144.331,2.192 144.331,3.381 C144.331,4.604 143.250,4.604 142.313,4.604 L129.733,4.604 C128.580,4.604 128.507,5.143 128.507,5.900 L128.507,11.224 L140.619,11.224 C142.962,11.224 142.962,12.988 142.962,13.743 C142.962,16.263 141.159,21.696 137.626,25.941 C138.709,27.164 140.583,29.215 143.430,31.231 C144.079,31.698 144.476,32.059 144.476,32.705 ZM140.403,14.426 C140.403,13.851 140.006,13.671 139.357,13.671 L132.184,13.671 C132.328,15.182 133.049,19.536 136.113,23.999 C139.068,20.184 140.403,15.867 140.403,14.426 ZM119.100,26.589 C118.306,26.589 116.360,26.444 116.360,25.113 C116.360,24.537 116.684,23.927 117.441,23.927 C117.910,23.927 118.955,24.106 119.280,24.106 C121.370,24.106 121.695,22.847 121.695,21.442 C121.695,20.256 121.514,17.809 118.378,14.247 C118.162,14.030 117.910,13.671 117.910,13.203 C117.910,12.879 117.981,12.699 118.306,12.303 C119.820,10.324 121.478,7.231 121.478,5.180 C121.478,4.425 121.046,4.388 120.288,4.388 L116.540,4.388 C115.351,4.388 115.315,4.604 115.315,5.828 L115.315,32.094 C115.315,32.921 115.315,34.000 114.161,34.000 C112.972,34.000 112.972,32.956 112.972,32.094 L112.972,5.791 C112.972,4.136 112.972,2.085 115.567,2.085 L121.623,2.085 C122.488,2.085 123.893,2.085 123.893,4.281 C123.893,8.346 121.623,11.693 120.542,13.347 C123.569,16.802 124.182,19.717 124.182,21.876 C124.182,24.610 122.740,26.589 119.100,26.589 ZM110.314,32.562 C110.314,33.497 109.412,33.856 108.980,33.856 C108.150,33.856 103.465,31.122 100.293,28.064 C96.256,24.178 94.597,20.039 93.985,18.421 C93.444,20.148 91.858,25.041 86.704,29.360 C83.495,32.021 79.890,33.786 78.918,33.786 C78.089,33.786 77.728,33.101 77.728,32.562 C77.728,31.770 78.124,31.590 79.494,30.942 C91.498,25.220 92.255,15.615 92.507,12.736 L79.819,12.736 C78.845,12.736 77.692,12.736 77.692,11.476 C77.692,10.217 78.845,10.182 79.819,10.182 L92.579,10.182 L92.579,2.912 C92.579,1.978 92.579,0.789 93.841,0.789 C95.139,0.789 95.139,1.941 95.139,2.912 L95.139,10.182 L108.150,10.182 C109.088,10.182 110.278,10.217 110.278,11.476 C110.278,12.736 109.124,12.736 108.150,12.736 L95.210,12.736 C96.327,23.999 105.339,29.071 108.079,30.618 C110.098,31.770 110.314,31.877 110.314,32.562 ZM76.301,24.153 C76.301,29.010 71.939,32.681 66.315,32.681 C58.999,32.681 55.502,26.672 55.502,24.514 C55.502,23.794 56.043,23.109 56.908,23.109 C57.701,23.109 57.845,23.363 58.926,25.556 C60.441,28.579 63.252,29.875 66.315,29.875 C70.750,29.875 73.381,27.211 73.381,24.333 C73.381,20.951 70.425,19.944 68.370,19.223 C62.243,17.137 61.558,16.885 60.152,15.914 C57.160,13.863 57.160,11.487 57.160,10.625 C57.160,5.982 61.053,3.032 66.063,3.032 C72.191,3.032 75.472,7.747 75.472,9.077 C75.472,9.905 74.931,10.516 74.174,10.516 C73.669,10.516 73.345,10.301 72.804,9.509 C72.155,8.574 70.173,5.658 65.847,5.658 C62.387,5.658 60.116,7.782 60.116,10.480 C60.116,13.539 63.324,14.583 67.793,16.058 C72.083,17.461 76.301,18.899 76.301,24.153 ZM51.467,32.681 C50.782,32.681 50.097,32.213 50.097,31.313 L50.097,7.385 C50.097,7.171 50.097,6.558 49.628,6.558 C49.340,6.558 49.232,6.847 49.124,7.134 L42.131,28.362 C41.410,30.523 40.400,30.882 39.211,30.882 C37.589,30.882 36.940,29.766 36.472,28.362 L29.479,7.134 C29.370,6.810 29.227,6.558 28.938,6.558 C28.505,6.558 28.505,7.134 28.505,7.385 L28.505,31.313 C28.505,31.961 28.037,32.681 27.172,32.681 C26.415,32.681 25.802,32.141 25.802,31.313 L25.802,6.091 C25.802,4.220 26.740,2.996 28.757,2.996 C30.488,2.996 31.317,4.220 31.786,5.623 L38.527,26.025 C38.886,27.141 38.922,27.248 39.283,27.248 C39.680,27.248 39.715,27.141 40.076,26.025 L46.817,5.623 C47.646,3.069 49.196,3.032 49.953,3.032 C50.457,3.032 52.800,3.032 52.800,6.091 L52.800,31.313 C52.800,31.889 52.368,32.681 51.467,32.681 ZM12.148,29.803 C14.058,29.803 18.095,29.010 20.150,24.081 C20.402,23.505 20.691,22.822 21.448,22.822 C22.205,22.822 22.818,23.433 22.818,24.333 C22.818,26.025 19.826,32.681 12.004,32.681 C4.507,32.681 0.000,26.745 0.000,18.144 C0.000,7.709 5.480,3.032 12.364,3.032 C19.141,3.032 22.602,8.970 22.602,10.877 C22.602,11.560 22.061,12.243 21.196,12.243 C20.331,12.243 20.223,12.028 19.285,10.121 C18.781,9.150 17.159,5.947 12.112,5.947 C8.724,5.947 6.669,7.495 5.696,8.826 C3.317,12.028 3.173,16.562 3.173,18.109 C3.173,26.097 7.101,29.803 12.148,29.803 ZM190.668,24.682 C191.065,24.178 191.353,23.782 191.966,23.782 C192.939,23.782 193.335,24.645 193.228,25.150 C192.831,27.199 186.126,33.317 184.468,33.317 C183.855,33.317 183.243,32.849 183.243,32.129 C183.243,31.625 183.351,31.518 184.900,30.402 C188.073,28.136 188.866,27.092 190.668,24.682 ZM195.642,16.766 C194.777,16.766 193.696,16.766 193.696,15.615 C193.696,14.426 194.777,14.426 195.642,14.426 L205.195,14.426 C206.060,14.426 207.141,14.426 207.141,15.578 C207.141,16.766 206.096,16.766 205.195,16.766 L195.642,16.766 ZM193.732,29.826 C194.057,29.826 194.237,29.898 195.715,30.583 C196.725,31.050 197.769,31.159 198.022,31.159 C198.707,31.159 198.851,30.835 198.851,30.115 L198.851,22.631 L188.001,22.631 C187.100,22.631 185.982,22.631 185.982,21.407 C185.982,20.184 187.064,20.184 188.001,20.184 L211.863,20.184 C212.765,20.184 213.882,20.184 213.882,21.407 C213.882,22.631 212.801,22.631 211.863,22.631 L201.374,22.631 L201.374,30.835 C201.374,31.842 201.374,33.714 198.707,33.714 C197.481,33.714 195.138,33.101 193.335,32.094 C192.867,31.805 192.615,31.483 192.615,31.015 C192.615,30.259 193.264,29.826 193.732,29.826 ZM206.384,23.638 C206.852,23.638 206.961,23.782 208.078,25.006 C210.277,27.344 212.079,28.747 213.990,29.863 C216.080,31.122 216.334,31.231 216.334,31.914 C216.334,32.777 215.576,33.210 215.144,33.210 C213.089,33.210 205.159,26.661 205.159,24.897 C205.159,24.213 205.699,23.638 206.384,23.638 Z" class="cls-1"/>
</svg>
